# xmcd
#
# Track frame offsets:
# 150
# 18896
# 34862
# 54325
# 72883
# 88559
# 105718
# 127446
# 145175
# 155634
# 179441
# 194165
# 210607
#
# Disc length: 3033 seconds
#
#
# Revision: 0
# Processed by: cddbd v1.5.2PL0 Copyright (c) Steve Scherf et al.
# Submitted via: FreeRIP 2.945 
#
DISCID=c00bd70d
DTITLE=JAMES MORRISON - UNDISCOVERED
DYEAR=1900
DGENRE=
TTITLE0=UNDER THE INFLUENCE
TTITLE1=YOU GIVE ME SOMETHING
TTITLE2=WONDERFUL WORLD
TTITLE3=THE PIECES DON'T FIT ANYMORE
TTITLE4=ONE LAST CHANCE
TTITLE5=UNDISCOVERED
TTITLE6=THE LETTER
TTITLE7=CALL THE POLICE
TTITLE8=THIS BOY
TTITLE9=IF THE RAIN MUST FALL
TTITLE10=HOW COME
TTITLE11=THE LASTGOODBYE
TTITLE12=BETTERMAN
EXTD=
EXTT0=
EXTT1=
EXTT2=
EXTT3=
EXTT4=
EXTT5=
EXTT6=
EXTT7=
EXTT8=
EXTT9=
EXTT10=
EXTT11=
EXTT12=
PLAYORDER=
